<?xml version="1.0" encoding="UTF-8"?>
<!DOCTYPE svg PUBLIC "-//W3C//DTD SVG 1.1//EN" "http://www.w3.org/Graphics/SVG/1.1/DTD/svg11.dtd">
<!-- Creator: CorelDRAW 2018 (64-Bit) -->
<svg xmlns="http://www.w3.org/2000/svg" xml:space="preserve" width="220px" height="60px" version="1.1" style="shape-rendering:geometricPrecision; text-rendering:geometricPrecision; image-rendering:optimizeQuality; fill-rule:evenodd; clip-rule:evenodd"
viewBox="0 0 220 60"
 xmlns:xlink="http://www.w3.org/1999/xlink">
 <defs>
  <style type="text/css">
   <![CDATA[
    .fil5 {fill:#FEFEFE}
    .fil1 {fill:#2B2A29}
    .fil3 {fill:#264796}
    .fil0 {fill:white}
    .fil4 {fill:#FEFEFE;fill-rule:nonzero}
    .fil7 {fill:#2B2A29;fill-rule:nonzero}
    .fil2 {fill:#2B2A29;fill-rule:nonzero}
    .fil6 {fill:#264796;fill-rule:nonzero}
   ]]>
  </style>
 </defs>
 <rect class="fil0" width="220.001" height="60"/>
 <g id="Слой_x0020_1">
  <metadata id="CorelCorpID_0Corel-Layer"/>
  <g id="_2053512933952">
   <path class="fil1" d="M17.216 47.776l12.269 0 -2.773 -4.38 -16.781 0c-2.491,0 -4.528,-2.223 -4.528,-4.941l0 -27.399c0,-2.717 2.037,-4.94 4.528,-4.94l42.404 0c2.491,0 4.529,2.223 4.529,4.94l0 27.399c0,2.718 -2.038,4.941 -4.529,4.941l-16.901 0 -2.231 4.38 11.676 0c0.468,0 1.037,0.255 1.57,0.659 0.538,0.41 1.065,0.969 1.412,1.587 0.253,0.448 0.507,0.898 0.761,1.347 0.349,0.617 0.438,1.181 0.296,1.587 -0.143,0.408 -0.525,0.659 -1.09,0.659 -5.56,0 -11.12,0 -16.676,0 -5.556,0 -11.115,0 -16.671,0 -0.566,0 -0.964,-0.25 -1.12,-0.659 -0.155,-0.405 -0.077,-0.97 0.251,-1.587 0.238,-0.45 0.473,-0.897 0.712,-1.347 0.326,-0.617 0.824,-1.179 1.348,-1.587 0.522,-0.405 1.076,-0.659 1.544,-0.659zm0.229 2.47l19.143 0c0.453,0 0.824,0.404 0.824,0.898l0 0c0,0.495 -0.371,0.899 -0.824,0.899l-19.143 0c-0.453,0 -0.824,-0.404 -0.824,-0.899l0 0c0,-0.494 0.371,-0.898 0.824,-0.898zm-4.321 -41.098l36.019 0c2.115,0 3.846,1.888 3.846,4.196l0 23.273c0,2.308 -1.731,4.197 -3.846,4.197l-36.019 0c-2.115,0 -3.846,-1.889 -3.846,-4.197l0 -23.273c0,-2.308 1.731,-4.196 3.846,-4.196z"/>
   <path class="fil2" d="M31.743 12.42l0 0c1.924,0 3.672,0.786 4.938,2.052 1.267,1.266 2.053,3.015 2.053,4.938l0 8.305 -2.835 0 0 -8.305c0,-1.141 -0.469,-2.179 -1.222,-2.934 -0.754,-0.753 -1.793,-1.221 -2.934,-1.221l0 0c-1.142,0 -2.18,0.468 -2.934,1.221 -0.754,0.755 -1.222,1.793 -1.222,2.934l0 8.305 -2.835 0 0 -8.305c0,-1.923 0.786,-3.672 2.052,-4.938 1.266,-1.266 3.015,-2.052 4.939,-2.052z"/>
   <path class="fil3" d="M23.37 21.918l16.561 0c1.215,0 2.209,0.994 2.209,2.208l0 8.465c0,1.215 -0.994,2.209 -2.209,2.209l-16.561 0c-1.215,0 -2.208,-0.994 -2.208,-2.209l0 -8.465c0,-1.214 0.993,-2.208 2.208,-2.208z"/>
   <path class="fil4" d="M24.224 23.015l14.853 0c0.555,0 1.061,0.227 1.426,0.592 0.366,0.366 0.592,0.871 0.592,1.427l0 6.65c0,0.555 -0.226,1.061 -0.592,1.427 -0.365,0.365 -0.871,0.592 -1.426,0.592l-14.853 0c-0.555,0 -1.06,-0.227 -1.426,-0.592 -0.365,-0.366 -0.592,-0.872 -0.592,-1.427l0 -6.65c0,-0.556 0.227,-1.061 0.592,-1.427l0.001 0.001c0.366,-0.366 0.871,-0.593 1.425,-0.593zm14.853 0.567l-14.853 0c-0.399,0 -0.762,0.163 -1.025,0.426l0 0.001c-0.263,0.263 -0.426,0.626 -0.426,1.025l0 6.65c0,0.399 0.163,0.762 0.426,1.025 0.264,0.263 0.627,0.427 1.025,0.427l14.853 0c0.399,0 0.762,-0.164 1.025,-0.427 0.263,-0.263 0.426,-0.626 0.426,-1.025l0 -6.65c0,-0.399 -0.163,-0.762 -0.426,-1.025 -0.263,-0.263 -0.626,-0.427 -1.025,-0.427z"/>
   <path class="fil5" d="M31.651 25.356c0.77,0 1.395,0.625 1.395,1.395 0,0.625 -0.41,1.154 -0.976,1.332l1.054 3.344 -2.946 0 0.971 -3.373c-0.523,-0.201 -0.894,-0.708 -0.894,-1.303 0,-0.77 0.625,-1.395 1.396,-1.395z"/>
  </g>
  <g id="_2053512928032">
   <path class="fil6" d="M77.068 53.318l-8.422 0 -6.671 0 0 -4.514 0.472 0c1.303,0 2.201,-0.405 2.695,-1.213 0.359,-0.584 0.539,-1.437 0.539,-2.56l0 -38.877 16.373 0 0 42.65 1.684 0 0 4.514 -6.67 0zm-1.684 -4.514l0 -38.136 -3.033 0 0 34.363c0,1.078 -0.135,1.909 -0.404,2.493 -0.269,0.584 -0.606,1.011 -1.01,1.28l4.447 0zm25.535 4.514l-5.659 0 0 -1.55c-1.572,1.303 -3.28,1.955 -5.121,1.955 -1.437,0 -2.38,-0.562 -2.83,-1.685 -0.269,-0.674 -0.404,-1.763 -0.404,-3.245l0 -33.273 5.66 0 0 32.138c0,0.899 0.426,1.348 1.28,1.348 0.404,0 0.741,-0.101 1.01,-0.303 0.27,-0.203 0.405,-0.55 0.405,-1.045l0 -32.138 5.659 0 0 37.798zm21.628 -7.007c0,1.886 -0.225,3.301 -0.673,4.244 -0.899,1.842 -2.673,2.763 -5.323,2.763l-4.582 0c-1.886,0 -3.212,-0.292 -3.975,-0.876 -1.303,-0.988 -1.954,-3.054 -1.954,-6.199l0 -33.149c0,-2.156 0.247,-3.684 0.741,-4.582 0.854,-1.572 2.583,-2.358 5.188,-2.358l4.582 0c2.156,0 3.728,0.539 4.716,1.617 0.854,0.943 1.28,2.695 1.28,5.255l0 8.221 -6.67 0 0 -9.231c0,-0.405 -0.18,-0.764 -0.539,-1.078 -0.359,-0.315 -0.741,-0.472 -1.146,-0.472 -0.269,0 -0.583,0.146 -0.943,0.438 -0.359,0.292 -0.539,0.663 -0.539,1.112l0 35.508c0,0.404 0.147,0.752 0.438,1.044 0.292,0.292 0.64,0.438 1.044,0.438 0.495,0 0.944,-0.225 1.348,-0.674 0.225,-0.269 0.337,-0.539 0.337,-0.808l0 -10.713 6.67 0 0 9.5z"/>
   <polygon class="fil7" points="135.892,35.397 125.989,35.397 125.989,29.738 135.892,29.738 "/>
   <polygon class="fil7" points="158.329,53.318 151.928,53.318 147.684,30.951 147.684,53.318 141.014,53.318 141.014,6.158 147.684,6.158 147.684,26.437 151.052,6.158 157.655,6.158 153.545,28.492 "/>
   <path class="fil7" d="M179.081 45.705c0,2.156 -0.27,3.773 -0.809,4.851 -0.898,1.841 -2.605,2.762 -5.12,2.762l-4.582 0c-2.425,0 -4.109,-0.921 -5.052,-2.762 -0.584,-1.168 -0.876,-2.785 -0.876,-4.851l0 -31.934c0,-2.156 0.269,-3.773 0.808,-4.851 0.899,-1.841 2.605,-2.762 5.12,-2.762l4.582 0c2.425,0 4.11,0.921 5.053,2.762 0.584,1.168 0.876,2.785 0.876,4.851l0 31.934zm-6.67 1.55l0 -35.033c0,-0.54 -0.157,-0.966 -0.472,-1.281 -0.314,-0.314 -0.674,-0.471 -1.078,-0.471 -0.494,0 -0.876,0.157 -1.145,0.471 -0.27,0.315 -0.404,0.741 -0.404,1.281l0 35.033c0,0.674 0.179,1.134 0.539,1.381 0.359,0.247 0.695,0.37 1.01,0.37 1.033,0 1.55,-0.584 1.55,-1.751z"/>
   <polygon class="fil7" points="214.385,53.318 207.715,53.318 207.715,17.005 202.797,53.318 196.195,53.318 191.277,17.005 191.277,53.318 184.607,53.318 184.607,6.158 194.443,6.158 199.226,43.28 204.549,6.158 214.385,6.158 "/>
  </g>
 </g>
</svg>
