<svg width="154" height="125" viewBox="0 0 154 125" fill="none" xmlns="http://www.w3.org/2000/svg">
<g filter="url(#filter0_f_5_35469)">
<path d="M5.29653 80.7804L45.2114 57.7333C46.4668 57.0142 48.4777 57.0142 49.7209 57.7333L50.2328 58.0258L50.7447 57.7333C51.7562 57.1483 53.2675 57.0508 54.4741 57.4043L80.3487 49.5066C81.6041 48.7875 83.615 48.7875 84.8582 49.5066L148.332 86.3867C149.575 87.1058 149.563 88.2758 148.32 88.9949L115.718 98.9401L78.7887 120.257C78.1305 120.634 77.3262 120.866 76.4852 120.951L76.473 121H69.5382L69.526 120.963C68.6241 120.89 67.7588 120.659 67.0763 120.257L5.27215 84.3392C3.56586 83.3642 3.57806 81.7676 5.29653 80.7804Z" fill="#131313" fill-opacity="0.3"/>
</g>
<path d="M48.9653 53.2727L62.4328 2.2791C62.6765 1.36502 63.1884 0.706887 63.81 0.377817L63.749 0.0853046L64.7972 0C65.1384 0.0121878 65.4919 0.121871 65.8453 0.316875L127.918 36.1611C129.356 36.9898 130.124 39.147 129.648 40.9874L116.181 91.981C115.913 93.0169 115.181 93.6263 114.377 93.6141H114.365L113.378 93.6994L113.451 93.4191L50.2816 56.9534C49.1847 56.3074 48.5997 54.6621 48.9653 53.2727Z" fill="url(#paint0_linear_5_35469)"/>
<path d="M64.9068 0.402158L126.979 36.2463C128.417 37.0751 129.185 39.2323 128.71 41.0727L115.242 92.0662C114.877 93.4557 113.694 94.0772 112.598 93.4435L49.27 56.8802C48.1731 56.2464 47.5881 54.6133 47.9537 53.2117L61.4212 2.21812C61.9208 0.389959 63.4687 -0.426609 64.9068 0.402158Z" fill="#494855"/>
<path d="M63.2249 1.76709L127.601 38.9397L114.45 88.7511L50.0621 51.5784L63.2249 1.76709Z" fill="#7C78F0"/>
<path d="M114.462 51.4204L116.668 52.6879C116.827 52.7732 116.997 52.7488 117.083 52.6026L117.144 52.5051C117.229 52.371 117.4 52.3344 117.558 52.4197L119.545 53.5654C119.703 53.6629 119.825 53.8701 119.825 54.0651V54.4429C119.825 54.4795 119.825 54.5282 119.813 54.5648L118.899 58.3796C118.862 58.5502 118.704 58.6111 118.557 58.5258L113.378 55.5276C113.231 55.4423 113.134 55.2351 113.183 55.0645L114.011 51.6032C114.048 51.396 114.255 51.3107 114.462 51.4204Z" fill="#FFE568"/>
<path d="M114.28 51.7373L119.46 54.7354C119.606 54.8208 119.703 55.028 119.655 55.1986L118.887 58.3918C118.85 58.5624 118.692 58.6233 118.545 58.538L113.366 55.5398C113.219 55.4545 113.122 55.2473 113.171 55.0767L113.939 51.8835C113.975 51.7129 114.121 51.6519 114.28 51.7373Z" fill="#FFEC8B"/>
<path d="M117.143 42.5353L119.349 43.8028C119.508 43.8881 119.679 43.8637 119.764 43.7175L119.825 43.62C119.91 43.4859 120.081 43.4494 120.239 43.5347L122.226 44.6803C122.384 44.7778 122.506 44.985 122.506 45.18V45.5578C122.506 45.5944 122.506 45.6432 122.494 45.6797L121.58 49.4945C121.543 49.6651 121.385 49.7261 121.239 49.6407L116.059 46.6425C115.913 46.5572 115.815 46.3501 115.864 46.1794L116.693 42.7181C116.741 42.4987 116.948 42.4134 117.143 42.5353Z" fill="#FFE568"/>
<path d="M116.961 42.84L122.14 45.8382C122.287 45.9236 122.384 46.1307 122.335 46.3014L121.568 49.4946C121.531 49.6652 121.373 49.7261 121.226 49.6408L116.047 46.6426C115.9 46.5573 115.803 46.3501 115.852 46.1795L116.619 42.9863C116.656 42.8157 116.814 42.7547 116.961 42.84Z" fill="#FFEC8B"/>
<path d="M64.5898 10.2377L66.7958 11.5053C66.9542 11.5906 67.1248 11.5662 67.2101 11.42L67.2711 11.3225C67.3564 11.1884 67.527 11.1518 67.6855 11.2371L69.6721 12.3828C69.8305 12.4803 69.9524 12.6875 69.9524 12.8825V13.2603C69.9524 13.2969 69.9524 13.3456 69.9402 13.3822L69.0261 17.197C68.9896 17.3676 68.8311 17.4285 68.6849 17.3432L63.5051 14.345C63.3588 14.2597 63.2613 14.0525 63.3101 13.8819L64.1388 10.4206C64.1754 10.2134 64.3948 10.1281 64.5898 10.2377Z" fill="#FFE568"/>
<path d="M64.407 10.5546L69.5868 13.5528C69.733 13.6381 69.8305 13.8453 69.7818 14.016L69.0139 17.2092C68.9774 17.3798 68.8189 17.4407 68.6727 17.3554L63.4929 14.3572C63.3466 14.2719 63.2491 14.0647 63.2979 13.8941L64.0657 10.7009C64.1023 10.5303 64.2607 10.4693 64.407 10.5546Z" fill="#FFEC8B"/>
<path d="M50.6348 49.4092L115.023 86.5818L114.45 88.7512L50.062 51.5786L50.6348 49.4092Z" fill="#C4C8D8"/>
<path d="M63.5661 51.4932L102.408 73.9186L110.721 42.4255L111.988 37.6601L73.1457 15.2346L71.8781 20L63.5661 51.4932Z" fill="#EFF0F5"/>
<path d="M71.8781 20L110.721 42.4255L111.988 37.6601L73.1457 15.2346L71.8781 20Z" fill="#C4C8D8"/>
<path d="M109.806 40.6339L107.235 39.147L107.759 37.1604L110.33 38.6473L109.806 40.6339Z" fill="#FC797E"/>
<path d="M77.0333 7.39795V69.2264L103.956 84.7658V22.9373L77.0333 7.39795Z" fill="#323333" fill-opacity="0.2"/>
<path d="M4.48023 81.8773C4.48023 81.8651 4.48023 81.8651 4.48023 81.8529V79.4763L6.43026 79.7078L45.0045 57.4408C46.2355 56.7339 48.2221 56.7339 49.4409 57.4408L108.71 91.8834L112.768 92.3709V94.9304C112.793 95.4179 112.488 95.9054 111.842 96.2832L72.5854 118.952C70.9035 119.927 68.1856 119.927 66.5037 118.952L5.71118 83.6323C4.90679 83.157 4.49241 82.5476 4.46804 81.926V81.8773H4.48023Z" fill="url(#paint1_linear_5_35469)"/>
<path d="M5.74747 77.7458L45.0042 55.0766C46.2352 54.3697 48.2218 54.3697 49.4406 55.0766L111.866 91.3473C113.085 92.0542 113.085 93.212 111.854 93.9189L72.5973 116.588C70.9154 117.563 68.1975 117.563 66.5156 116.588L5.7231 81.268C4.05338 80.293 4.06556 78.7208 5.74747 77.7458Z" fill="#EFF0F5"/>
<path d="M22.0182 70.0308L45.1749 56.6608C45.9915 56.1977 47.2956 56.1977 48.1122 56.6608L109.136 92.1272C109.941 92.5903 109.941 93.3582 109.124 93.8213L85.9673 107.191C85.1508 107.654 83.8467 107.654 83.0301 107.191L22.006 71.7249C21.2016 71.2618 21.2016 70.5061 22.0182 70.0308Z" fill="#E1E3EB"/>
<path d="M24.9676 89.312L36.485 82.6575C37.1554 82.2675 38.2523 82.2675 38.9226 82.6575L64.2244 97.3559C64.8947 97.7459 64.8947 98.3797 64.2122 98.7697L52.6947 105.424C52.0244 105.814 50.9275 105.814 50.2572 105.424L24.9554 90.7258C24.2973 90.3358 24.2973 89.702 24.9676 89.312Z" fill="#D9DBE6"/>
<path d="M64.2123 97.7213L38.9105 83.0229C38.2402 82.6329 37.1555 82.6329 36.4729 83.0229L24.9555 89.6774C24.6996 89.8237 24.5411 90.0187 24.4802 90.2137C24.3827 89.8968 24.5411 89.5677 24.9555 89.324L36.4729 82.6695C37.1433 82.2795 38.2402 82.2795 38.9105 82.6695L64.2123 97.3679C64.6266 97.6116 64.7729 97.9285 64.6876 98.2454C64.6266 98.0504 64.4682 97.8676 64.2123 97.7213Z" fill="#C5C9D8"/>
<path d="M98.7646 94.3211V93.992H99.0328L101.812 92.3832C102.092 92.2248 102.555 92.2248 102.835 92.3832L105.614 94.0042H105.858V94.3211V94.3454C105.846 94.4429 105.785 94.5405 105.651 94.6258L102.823 96.2589C102.543 96.4174 102.08 96.4174 101.799 96.2589L98.984 94.6258C98.8256 94.5405 98.7646 94.4308 98.7646 94.3211Z" fill="#393842"/>
<path d="M80.8852 104.644V104.315H81.1534L83.9322 102.706C84.2125 102.548 84.6756 102.548 84.956 102.706L87.7348 104.327H87.9785V104.644V104.668C87.9663 104.766 87.9054 104.863 87.7713 104.949L84.9438 106.582C84.6634 106.74 84.2003 106.74 83.92 106.582L81.1046 104.949C80.9584 104.863 80.8852 104.754 80.8852 104.644Z" fill="#393842"/>
<path d="M76.4731 102.085V101.756H76.7413L79.5201 100.147C79.8004 99.9763 80.2635 99.9884 80.5438 100.147L83.3227 101.768H83.5664V102.085V102.109C83.5542 102.207 83.4933 102.304 83.3592 102.389L80.5317 104.023C80.2513 104.193 79.7882 104.193 79.5079 104.023L76.6925 102.389C76.5463 102.304 76.4731 102.194 76.4731 102.085Z" fill="#393842"/>
<path d="M72.0613 99.5252V99.1961H72.3294L75.1082 97.5873C75.3885 97.4289 75.8517 97.4289 76.132 97.5873L78.9108 99.2083H79.1545V99.5252V99.5496C79.1424 99.6471 79.0814 99.7446 78.9474 99.8299L76.1198 101.463C75.8395 101.621 75.3763 101.621 75.096 101.463L72.2806 99.8299C72.1344 99.7324 72.0613 99.6349 72.0613 99.5252Z" fill="#393842"/>
<path d="M67.6492 96.9537V96.6246H67.9173L70.6961 95.0158C70.9764 94.8574 71.4396 94.8574 71.7199 95.0158L74.4987 96.6368H74.7424V96.9537V96.978C74.7302 97.0755 74.6693 97.173 74.5352 97.2584L71.7077 98.8915C71.4274 99.0621 70.9642 99.0621 70.6839 98.8915L67.8685 97.2584C67.7223 97.173 67.6492 97.0634 67.6492 96.9537Z" fill="#393842"/>
<path d="M94.3525 91.7618V91.4327H94.6207L97.3995 89.8239C97.6798 89.6655 98.1429 89.6655 98.4232 89.8239L101.202 91.4449H101.446V91.7618V91.7861C101.434 91.8836 101.373 91.9811 101.239 92.0665L98.411 93.6996C98.1307 93.8702 97.6676 93.8702 97.3873 93.6996L94.5719 92.0665C94.4257 91.9811 94.3525 91.8714 94.3525 91.7618Z" fill="#393842"/>
<path d="M87.4175 92.8829V92.5538H87.6856L90.4644 90.945C90.7447 90.7866 91.2079 90.7866 91.4882 90.945L94.267 92.566H94.5107V92.8829V92.9072C94.4986 93.0047 94.4376 93.1022 94.3036 93.1875L91.476 94.8207C91.1957 94.9792 90.7325 94.9792 90.4522 94.8207L87.6368 93.1875C87.4906 93.09 87.4175 92.9804 87.4175 92.8829Z" fill="#393842"/>
<path d="M83.0061 90.3115V89.9825H83.2742L86.053 88.3737C86.3333 88.2031 86.7965 88.2152 87.0768 88.3737L89.8556 89.9947H90.0994V90.3115V90.3359C90.0872 90.4334 90.0262 90.5309 89.8922 90.6162L87.0646 92.2494C86.7843 92.42 86.3212 92.42 86.0408 92.2494L83.2255 90.6162C83.0792 90.5309 83.0061 90.4212 83.0061 90.3115Z" fill="#393842"/>
<path d="M80.7143 94.1873V93.8582H80.9825L83.7613 92.2616C84.0416 92.091 84.5047 92.1032 84.7851 92.2616L87.5639 93.8826H87.8076V94.1995V94.2239C87.7954 94.3214 87.7345 94.4189 87.6004 94.5042L84.7729 96.1373C84.4926 96.2958 84.0294 96.2958 83.7491 96.1373L80.9337 94.5042C80.7875 94.4067 80.7143 94.297 80.7143 94.1873Z" fill="#393842"/>
<path d="M76.217 96.7952V96.4661H76.4852L79.264 94.8573C79.5443 94.6867 80.0074 94.6989 80.2877 94.8573L83.0665 96.4783H83.3103V96.7952V96.8196C83.2981 96.9171 83.2372 97.0146 83.1031 97.0999L80.2755 98.733C79.9952 98.8915 79.5321 98.8915 79.2518 98.733L76.4364 97.0999C76.278 97.0024 76.217 96.8927 76.217 96.7952Z" fill="#393842"/>
<path d="M71.8052 94.2237V93.8946H72.0733L74.8521 92.2858C75.1324 92.1274 75.5956 92.1274 75.8759 92.2858L78.6547 93.9068H78.8984V94.2237V94.2481C78.8862 94.3456 78.8253 94.4431 78.6912 94.5284L75.8637 96.1615C75.5834 96.32 75.1202 96.32 74.8399 96.1615L72.0245 94.5284C71.8661 94.4431 71.8052 94.3334 71.8052 94.2237Z" fill="#393842"/>
<path d="M67.3933 91.6641V91.335H67.6614L70.4402 89.7262C70.7206 89.5556 71.1837 89.5678 71.464 89.7262L74.2428 91.3472H74.4866V91.6641V91.6885C74.4744 91.786 74.4134 91.8835 74.2794 91.9688L71.4518 93.6019C71.1715 93.7726 70.7084 93.7726 70.4281 93.6019L67.6127 91.9688C67.4664 91.8835 67.3933 91.7738 67.3933 91.6641Z" fill="#393842"/>
<path d="M62.9814 89.1048V88.7757H63.2496L66.0284 87.1669C66.3087 87.0085 66.7718 87.0085 67.0521 87.1669L69.8309 88.7879H70.0747V89.1048V89.1292C70.0625 89.2267 70.0016 89.3242 69.8675 89.4095L67.0399 91.0426C66.7596 91.2011 66.2965 91.2011 66.0162 91.0426L63.2008 89.4095C63.0546 89.312 62.9814 89.2023 62.9814 89.1048Z" fill="#393842"/>
<path d="M58.5693 86.533V86.2039H58.8375L61.6163 84.5951C61.8966 84.4367 62.3597 84.4367 62.64 84.5951L65.4188 86.2161H65.6626V86.533V86.5574C65.6504 86.6549 65.5895 86.7524 65.4554 86.8377L62.6278 88.4709C62.3475 88.6293 61.8844 88.6293 61.6041 88.4709L58.7887 86.8377C58.6425 86.7524 58.5693 86.6427 58.5693 86.533Z" fill="#393842"/>
<path d="M54.1575 83.9739V83.6448H54.4256L57.2044 82.0361C57.4847 81.8776 57.9479 81.8776 58.2282 82.0361L61.007 83.657H61.2507V83.9739V83.9983C61.2385 84.0958 61.1776 84.1933 61.0435 84.2786L58.216 85.9118C57.9357 86.0824 57.4725 86.0824 57.1922 85.9118L54.3768 84.2786C54.2306 84.1933 54.1575 84.0836 54.1575 83.9739Z" fill="#393842"/>
<path d="M49.7454 81.4141V81.085H50.0135L52.7923 79.4884C53.0726 79.3178 53.5357 79.33 53.8161 79.4884L56.5949 81.1094H56.8386V81.4263V81.4507C56.8264 81.5482 56.7655 81.6457 56.6314 81.731L53.8039 83.3641C53.5235 83.5226 53.0604 83.5226 52.7801 83.3641L49.9647 81.731C49.8185 81.6213 49.7454 81.5116 49.7454 81.4141Z" fill="#393842"/>
<path d="M45.3335 78.8426V78.5135H45.6016L48.3804 76.9047C48.6607 76.7463 49.1239 76.7463 49.4042 76.9047L52.183 78.5257H52.4268V78.8426V78.8669C52.4146 78.9645 52.3536 79.062 52.2196 79.1473L49.392 80.7804C49.1117 80.9389 48.6486 80.9389 48.3682 80.7804L45.5529 79.1473C45.4066 79.062 45.3335 78.9523 45.3335 78.8426Z" fill="#393842"/>
<path d="M40.9216 76.2832V75.9541H41.1898L43.9686 74.3454C44.2489 74.1747 44.712 74.1869 44.9923 74.3454L47.7711 75.9663H48.0149V76.2832V76.3076C48.0027 76.4051 47.9418 76.5026 47.8077 76.5879L44.9801 78.2211C44.6998 78.3917 44.2367 78.3917 43.9564 78.2211L41.141 76.5879C40.9947 76.5026 40.9216 76.3929 40.9216 76.2832Z" fill="#393842"/>
<path d="M36.2048 78.6841V78.355H36.473L39.2518 76.7462C39.5321 76.5756 39.9952 76.5878 40.2755 76.7462L43.0543 78.3672H43.2981V78.6841V78.7085C43.2859 78.806 43.225 78.9035 43.0909 78.9888L40.2633 80.6219C39.983 80.7926 39.5199 80.7926 39.2396 80.6219L36.4242 78.9888C36.2658 78.8913 36.1926 78.7938 36.2048 78.6841Z" fill="#393842"/>
<path d="M31.793 76.1126V75.7835H32.0611L34.8399 74.1747C35.1202 74.0163 35.5834 74.0163 35.8637 74.1747L38.6425 75.7957H38.8862V76.1126V76.137C38.874 76.2345 38.8131 76.332 38.679 76.4173L35.8515 78.0504C35.5712 78.2089 35.108 78.2089 34.8277 78.0504L32.0123 76.4173C31.8539 76.332 31.7808 76.2223 31.793 76.1126Z" fill="#393842"/>
<path d="M22.8591 70.9204V70.5914H23.1273L25.9061 68.9826C26.1864 68.8119 26.6495 68.8241 26.9298 68.9826L29.7086 70.6035H29.9524V70.9204V70.9448C29.9402 71.0423 29.8793 71.1398 29.7452 71.2251L26.9176 72.8583C26.6373 73.0167 26.1742 73.0167 25.8939 72.8583L23.0785 71.2251C22.9201 71.1398 22.8591 71.0301 22.8591 70.9204Z" fill="#393842"/>
<path d="M27.5634 68.032L30.3422 66.4233C30.6225 66.2648 31.0857 66.2648 31.366 66.4233L31.756 66.6548L34.1448 68.0442H34.3885V68.1783L34.5348 68.2636H34.7786V68.5805V68.6049C34.7664 68.7024 34.7054 68.7999 34.5714 68.8852L31.7438 70.5184C31.4635 70.6768 31.0004 70.6768 30.72 70.5184L27.5147 68.6536C27.3684 68.5683 27.3075 68.4586 27.3075 68.3611V68.032H27.5634Z" fill="#393842"/>
<path d="M36.5093 73.7237V73.3946H36.7774L39.5562 71.7858C39.8365 71.6274 40.2997 71.6274 40.58 71.7858L43.3588 73.4068H43.6025V73.7237V73.7481C43.5904 73.8456 43.5294 73.9431 43.3953 74.0284L40.5678 75.6615C40.2875 75.82 39.8243 75.82 39.544 75.6615L36.7286 74.0284C36.5824 73.9309 36.5093 73.8212 36.5093 73.7237Z" fill="#393842"/>
<path d="M32.0976 71.1521V70.8231H32.3658L35.1446 69.2143C35.4249 69.0558 35.888 69.0558 36.1684 69.2143L38.9472 70.8353H39.1909V71.1521V71.1765C39.1787 71.274 39.1178 71.3715 38.9837 71.4568L36.1562 73.09C35.8759 73.2606 35.4127 73.2606 35.1324 73.09L32.317 71.4568C32.1708 71.3715 32.0976 71.2618 32.0976 71.1521Z" fill="#393842"/>
<path d="M76.3027 91.6275V91.2984H76.5709L79.3497 89.6896C79.63 89.5312 80.0931 89.5312 80.3734 89.6896L83.1522 91.3106H83.396V91.6275V91.6519C83.3838 91.7494 83.3229 91.8469 83.1888 91.9322L80.3612 93.5653C80.0809 93.7238 79.6178 93.7238 79.3375 93.5653L76.5221 91.9322C76.3759 91.8469 76.3027 91.7372 76.3027 91.6275Z" fill="#393842"/>
<path d="M71.8906 89.0681V88.7391H72.1587L74.9376 87.1303C75.2179 86.9597 75.681 86.9718 75.9613 87.1303L78.7401 88.7513H78.9839V89.0681V89.0925C78.9717 89.19 78.9108 89.2875 78.7767 89.3728L75.9491 91.006C75.6688 91.1766 75.2057 91.1766 74.9254 91.006L72.11 89.3728C71.9637 89.2875 71.8906 89.1778 71.8906 89.0681Z" fill="#393842"/>
<path d="M67.4787 86.4966V86.1676H67.7469L70.5257 84.5588C70.806 84.4003 71.2691 84.4003 71.5495 84.5588L74.3283 86.1797H74.572V86.4966V86.521C74.5598 86.6185 74.4989 86.716 74.3648 86.8013L71.5373 88.4345C71.257 88.5929 70.7938 88.5929 70.5135 88.4345L67.6981 86.8013C67.5519 86.716 67.4787 86.6063 67.4787 86.4966Z" fill="#393842"/>
<path d="M63.0664 83.9371V83.608H63.3345L66.1133 81.9992C66.3937 81.8408 66.8568 81.8408 67.1371 81.9992L69.9159 83.6202H70.1597V83.9371V83.9614C70.1475 84.0589 70.0865 84.1564 69.9525 84.2417L67.1249 85.8749C66.8446 86.0455 66.3815 86.0455 66.1011 85.8749L63.2858 84.2417C63.1395 84.1564 63.0664 84.0467 63.0664 83.9371Z" fill="#393842"/>
<path d="M58.6548 81.3777V81.0487H58.9229L61.7017 79.4399C61.982 79.2814 62.4452 79.2814 62.7255 79.4399L65.5043 81.0608H65.748V81.3777V81.4021C65.7359 81.4996 65.6749 81.5971 65.5409 81.6824L62.7133 83.3156C62.433 83.474 61.9698 83.474 61.6895 83.3156L58.8742 81.6824C58.7279 81.5849 58.6548 81.4874 58.6548 81.3777Z" fill="#393842"/>
<path d="M54.2424 78.8062V78.4771H54.5106L57.2894 76.8683C57.5697 76.7099 58.0328 76.7099 58.3131 76.8683L61.0919 78.4893H61.3357V78.8062V78.8306C61.3235 78.9281 61.2626 79.0256 61.1285 79.1109L58.3009 80.7441C58.0206 80.9147 57.5575 80.9147 57.2772 80.7441L54.4618 79.1109C54.3155 79.0256 54.2424 78.9159 54.2424 78.8062Z" fill="#393842"/>
<path d="M49.831 76.2466V75.9175H50.0992L52.878 74.321C53.1583 74.1503 53.6214 74.1625 53.9017 74.321L56.6806 75.9419H56.9243V76.2588V76.2832C56.9121 76.3807 56.8512 76.4782 56.7171 76.5635L53.8896 78.1966C53.6092 78.3551 53.1461 78.3551 52.8658 78.1966L50.0504 76.5635C49.9042 76.466 49.831 76.3563 49.831 76.2466Z" fill="#393842"/>
<path d="M45.4187 73.6873V73.3582H45.6868L48.4656 71.7494C48.7459 71.591 49.2091 71.591 49.4894 71.7494L52.2682 73.3704H52.512V73.6873V73.7117C52.4998 73.8092 52.4388 73.9067 52.3048 73.992L49.4772 75.6252C49.1969 75.7836 48.7338 75.7836 48.4534 75.6252L45.6381 73.992C45.4918 73.8945 45.4187 73.797 45.4187 73.6873Z" fill="#393842"/>
<path d="M41.019 71.1157V70.7867H41.2872L44.066 69.1779C44.3463 69.0073 44.8094 69.0194 45.0897 69.1779L47.8686 70.7989H48.1123V71.1157V71.1401C48.1001 71.2376 48.0392 71.3351 47.9051 71.4204L45.0776 73.0536C44.7972 73.2242 44.3341 73.2242 44.0538 73.0536L41.2384 71.4204C41.08 71.3351 41.0068 71.2254 41.019 71.1157Z" fill="#393842"/>
<path d="M78.5937 87.752V87.4229H78.8619L81.6407 85.8141C81.921 85.6557 82.3841 85.6557 82.6644 85.8141L85.4433 87.4351H85.687V87.752V87.7764C85.6748 87.8739 85.6139 87.9714 85.4798 88.0567L82.6523 89.6899C82.3719 89.8483 81.9088 89.8483 81.6285 89.6899L78.8131 88.0567C78.6669 87.9714 78.5937 87.8617 78.5937 87.752Z" fill="#393842"/>
<path d="M74.1821 85.1924V84.8633H74.4503L77.2291 83.2546C77.5094 83.0961 77.9725 83.0961 78.2528 83.2546L81.0316 84.8755H81.2754V85.1924V85.2168C81.2632 85.3143 81.2023 85.4118 81.0682 85.4971L78.2406 87.1303C77.9603 87.3009 77.4972 87.3009 77.2169 87.1303L74.4015 85.4971C74.2552 85.3996 74.1821 85.2899 74.1821 85.1924Z" fill="#393842"/>
<path d="M69.7698 82.6206V82.2916H70.0379L72.8167 80.695C73.097 80.5243 73.5602 80.5365 73.8405 80.695L76.6193 82.316H76.863V82.6328V82.6572C76.8508 82.7547 76.7899 82.8522 76.6558 82.9375L73.8283 84.5707C73.548 84.7291 73.0848 84.7291 72.8045 84.5707L69.9891 82.9375C69.8429 82.84 69.7698 82.7303 69.7698 82.6206Z" fill="#393842"/>
<path d="M65.3581 80.0613V79.7323H65.6263L68.4051 78.1235C68.6854 77.965 69.1485 77.965 69.4288 78.1235L72.2077 79.7444H72.4514V80.0613V80.0857C72.4392 80.1832 72.3783 80.2807 72.2442 80.366L69.4167 81.9992C69.1363 82.1576 68.6732 82.1576 68.3929 81.9992L65.5775 80.366C65.4313 80.2807 65.3581 80.171 65.3581 80.0613Z" fill="#393842"/>
<path d="M60.9458 77.502V77.1729H61.2139L63.9927 75.5641C64.273 75.3935 64.7362 75.4057 65.0165 75.5641L67.7953 77.1851H68.0391V77.502V77.5263C68.0269 77.6238 67.9659 77.7213 67.8319 77.8067L65.0043 79.4398C64.724 79.6104 64.2609 79.6104 63.9805 79.4398L61.1652 77.8067C61.0189 77.7092 60.9458 77.5995 60.9458 77.502Z" fill="#393842"/>
<path d="M56.5344 74.9305V74.6014H56.8025L59.5814 72.9926C59.8617 72.8342 60.3248 72.8342 60.6051 72.9926L63.3839 74.6136H63.6277V74.9305V74.9548C63.6155 75.0523 63.5546 75.1498 63.4205 75.2352L60.5929 76.8683C60.3126 77.0267 59.8495 77.0267 59.5692 76.8683L56.7538 75.2352C56.6075 75.1498 56.5344 75.0401 56.5344 74.9305Z" fill="#393842"/>
<path d="M52.1221 72.3709V72.0418H52.3902L55.169 70.433C55.4493 70.2746 55.9125 70.2746 56.1928 70.433L58.9716 72.054H59.2153V72.3709V72.3953C59.2031 72.4928 59.1422 72.5903 59.0081 72.6756L56.1806 74.3088C55.9003 74.4794 55.4371 74.4794 55.1568 74.3088L52.3414 72.6756C52.1952 72.5903 52.1221 72.4806 52.1221 72.3709Z" fill="#393842"/>
<path d="M47.7224 69.8115V69.4825H47.9905L50.7693 67.8737C51.0497 67.7031 51.5128 67.7152 51.7931 67.8737L54.5719 69.4946H54.8157V69.8115V69.8359C54.8035 69.9334 54.7425 70.0309 54.6085 70.1162L51.7809 71.7494C51.5006 71.9078 51.0375 71.9078 50.7571 71.7494L47.9418 70.1162C47.7833 70.0187 47.7102 69.909 47.7224 69.8115Z" fill="#393842"/>
<path d="M43.31 67.24V66.911H43.5782L46.357 65.3022C46.6373 65.1437 47.1004 65.1437 47.3808 65.3022L50.1596 66.9231H50.4033V67.24V67.2644C50.3911 67.3619 50.3302 67.4594 50.1961 67.5447L47.3686 69.1779C47.0882 69.3363 46.6251 69.3363 46.3448 69.1779L43.5294 67.5447C43.371 67.4594 43.2979 67.3497 43.31 67.24Z" fill="#393842"/>
<path d="M89.9407 89.2022V88.8731H90.2088L92.9876 87.2643C93.2679 87.1059 93.7311 87.1059 94.0114 87.2643L96.7902 88.8853H97.0339V89.2022V89.2266C97.0217 89.3241 96.9608 89.4216 96.8267 89.5069L93.9992 91.1401C93.7189 91.2985 93.2557 91.2985 92.9754 91.1401L90.16 89.5069C90.0138 89.4094 89.9407 89.3119 89.9407 89.2022Z" fill="#393842"/>
<path d="M85.5286 86.6307V86.3016H85.7967L88.5755 84.6928C88.8558 84.5344 89.3189 84.5344 89.5993 84.6928L92.3781 86.3138H92.6218V86.6307V86.655C92.6096 86.7525 92.5487 86.8501 92.4146 86.9354L89.5871 88.5685C89.3068 88.727 88.8436 88.727 88.5633 88.5685L85.7479 86.9354C85.6017 86.8501 85.5286 86.7404 85.5286 86.6307Z" fill="#393842"/>
<path d="M81.1167 84.0713V83.7423H81.3848L84.1636 82.1457C84.4439 81.975 84.9071 81.9872 85.1874 82.1457L87.9662 83.7666H88.21V84.0713V84.0957C88.1978 84.1932 88.1368 84.2907 88.0028 84.376L85.1752 86.0092C84.8949 86.1676 84.4318 86.1676 84.1514 86.0092L81.3361 84.376C81.1898 84.2907 81.1167 84.181 81.1167 84.0713Z" fill="#393842"/>
<path d="M76.7048 81.5118V81.1827H76.973L79.7518 79.5739C80.0321 79.4155 80.4952 79.4155 80.7755 79.5739L83.5543 81.1949H83.7981V81.5118V81.5361C83.7859 81.6336 83.725 81.7311 83.5909 81.8165L80.7633 83.4496C80.483 83.6081 80.0199 83.6081 79.7396 83.4496L76.9242 81.8165C76.7779 81.7189 76.7048 81.6214 76.7048 81.5118Z" fill="#393842"/>
<path d="M72.293 78.9402V78.6111H72.5611L75.3399 77.0023C75.6202 76.8317 76.0833 76.8439 76.3637 77.0023L79.1425 78.6233H79.3862V78.9402V78.9646C79.374 79.0621 79.3131 79.1596 79.179 79.2449L76.3515 80.8781C76.0712 81.0487 75.608 81.0487 75.3277 80.8781L72.5123 79.2449C72.3661 79.1596 72.293 79.0499 72.293 78.9402Z" fill="#393842"/>
<path d="M67.8806 76.3807V76.0516H68.1487L70.9275 74.4428C71.2079 74.2844 71.671 74.2844 71.9513 74.4428L74.7301 76.0638H74.9739V76.3807V76.405C74.9617 76.5025 74.9008 76.6 74.7667 76.6853L71.9391 78.3185C71.6588 78.4769 71.1957 78.4769 70.9154 78.3185L68.1 76.6853C67.9537 76.6 67.8806 76.4903 67.8806 76.3807Z" fill="#393842"/>
<path d="M63.469 73.8213V73.4923H63.7371L66.5159 71.8835C66.7962 71.725 67.2594 71.725 67.5397 71.8835L70.3185 73.5045H70.5623V73.8213V73.8457C70.5501 73.9432 70.4891 74.0407 70.3551 74.126L67.5275 75.7592C67.2472 75.9298 66.7841 75.9298 66.5037 75.7592L63.6884 74.126C63.5421 74.0285 63.469 73.931 63.469 73.8213Z" fill="#393842"/>
<path d="M59.0566 71.2496V70.9205H59.3248L62.1036 69.3239C62.3839 69.1533 62.847 69.1654 63.1273 69.3239L65.9061 70.9449H66.1499V71.2617V71.2861C66.1377 71.3836 66.0768 71.4811 65.9427 71.5664L63.1152 73.1996C62.8348 73.358 62.3717 73.358 62.0914 73.1996L59.276 71.5664C59.1298 71.4689 59.0566 71.3592 59.0566 71.2496Z" fill="#393842"/>
<path d="M54.6453 68.6902V68.3612H54.9134L57.6922 66.7524C57.9725 66.5939 58.4356 66.5939 58.716 66.7524L61.4948 68.3733H61.7385V68.6902V68.7146C61.7263 68.8121 61.6654 68.9096 61.5313 68.9949L58.7038 70.6281C58.4235 70.7865 57.9603 70.7865 57.68 70.6281L54.8646 68.9949C54.7184 68.9096 54.6453 68.7999 54.6453 68.6902Z" fill="#393842"/>
<path d="M50.2329 66.1309V65.8018H50.501L53.2798 64.193C53.5601 64.0224 54.0233 64.0346 54.3036 64.193L57.0824 65.814H57.3262V66.1309V66.1553C57.314 66.2528 57.253 66.3503 57.119 66.4356L54.2914 68.0687C54.0111 68.2272 53.548 68.2272 53.2676 68.0687L50.4523 66.4356C50.306 66.3381 50.2329 66.2406 50.2329 66.1309Z" fill="#393842"/>
<path d="M45.821 63.5591V63.23H46.0892L48.868 61.6213C49.1483 61.4628 49.6114 61.4628 49.8917 61.6213L52.6705 63.2422H52.9143V63.5591V63.5835C52.9021 63.681 52.8412 63.7785 52.7071 63.8638L49.8796 65.497C49.5992 65.6554 49.1361 65.6554 48.8558 65.497L46.0404 63.8638C45.8942 63.7785 45.821 63.6688 45.821 63.5591Z" fill="#393842"/>
<path d="M40.7384 60.2562L41.0187 60.2684L43.7853 58.6718C44.0656 58.5012 44.5288 58.5133 44.8091 58.6718L48.2338 60.6584L48.5142 60.6706V60.9753C48.5142 60.9875 48.5142 60.9996 48.5142 61.0118V61.024C48.502 61.1215 48.4288 61.2068 48.307 61.28L45.4794 62.9131C45.1991 63.0716 44.736 63.0837 44.4556 62.9131L40.9578 60.8778C40.8115 60.7924 40.7384 60.6828 40.7506 60.5609V60.2562H40.7384Z" fill="#393842"/>
<path d="M40.6046 81.2314V80.9145H40.8728L43.6516 79.3057C43.8588 79.1838 44.1756 79.1473 44.4438 79.2204C44.5291 79.2448 44.6144 79.2691 44.6875 79.3179L47.4663 80.9388H47.7101V81.0851L67.308 92.4806L70.0868 94.1016H70.3306V94.4185V94.4429V94.4551C70.3306 94.4795 70.3184 94.4916 70.3184 94.516C70.3184 94.516 70.3184 94.5282 70.3062 94.5282C70.294 94.5526 70.294 94.5648 70.2696 94.5891C70.2574 94.6013 70.2453 94.6135 70.2453 94.6257C70.2331 94.6379 70.2209 94.6501 70.2087 94.6623C70.1843 94.6866 70.1599 94.711 70.1234 94.7232L67.2958 96.3564C67.2227 96.3929 67.1374 96.4295 67.0521 96.4539C66.9667 96.4782 66.8692 96.4904 66.7839 96.4904C66.6011 96.4904 66.4183 96.4539 66.272 96.3685L63.4567 94.7354L40.824 81.5848C40.6778 81.4507 40.6046 81.341 40.6046 81.2314Z" fill="#393842"/>
<path d="M98.1066 88.8122C98.1066 88.8 98.1066 88.8 98.1066 88.8122V88.4954L98.2894 88.5441C98.3016 88.5319 98.3138 88.5319 98.326 88.5197L99.0938 88.081C99.3741 87.9225 99.8373 87.9103 100.118 88.081L102.726 89.5923L103.14 89.6776V90.0188C103.128 90.1163 103.067 90.226 102.933 90.2991L102.165 90.7379C101.885 90.9085 101.422 90.9085 101.141 90.7379L98.326 89.1047C98.1797 89.0194 98.1188 88.9219 98.1066 88.8122Z" fill="#393842"/>
<path d="M93.6942 86.2406V85.9237L93.8771 85.9725C93.8892 85.9603 93.9014 85.9603 93.9136 85.9481L94.6814 85.5093C94.9618 85.3387 95.4249 85.3387 95.7052 85.5093L98.3134 87.0206L98.7278 87.1181V87.4594C98.7156 87.5569 98.6547 87.6666 98.5206 87.7397L97.7528 88.1784C97.4724 88.3369 97.0093 88.3491 96.729 88.1784L93.9136 86.5453C93.7674 86.46 93.7064 86.3503 93.6942 86.2406Z" fill="#393842"/>
<path d="M89.2829 83.6814V83.3645L89.4657 83.4132C89.4779 83.4011 89.4901 83.4011 89.5022 83.3889L90.2701 82.9501C90.5504 82.7917 91.0135 82.7795 91.2938 82.9501L93.902 84.4614L94.3164 84.5589V84.9001C94.3042 84.9976 94.2433 85.1073 94.1092 85.1805L93.3414 85.6192C93.0611 85.7777 92.5979 85.7899 92.3176 85.6192L89.5022 83.9861C89.356 83.8885 89.2951 83.791 89.2829 83.6814Z" fill="#393842"/>
<path d="M84.8705 81.1217C84.8705 81.1095 84.8705 81.1095 84.8705 81.1217V80.8048L85.0533 80.8536C85.0655 80.8414 85.0777 80.8414 85.0899 80.8292L85.8577 80.3904C86.138 80.2198 86.6012 80.2198 86.8815 80.3904L89.4897 81.9017L89.9041 81.9992V82.3405C89.8919 82.438 89.8309 82.5477 89.6969 82.6208L88.929 83.0595C88.6487 83.218 88.1856 83.2302 87.9053 83.0595L85.0899 81.4264C84.9436 81.3289 84.8827 81.2314 84.8705 81.1217Z" fill="#393842"/>
<path d="M80.4709 78.5503V78.2334L80.6537 78.2821C80.6659 78.27 80.678 78.2699 80.6902 78.2578L81.4581 77.819C81.7384 77.6606 82.2015 77.6484 82.4818 77.819L85.09 79.3303L85.5044 79.4278V79.769C85.4922 79.8666 85.4313 79.9762 85.2972 80.0494L84.5294 80.4881C84.2491 80.6466 83.7859 80.6587 83.5056 80.4881L80.6902 78.855C80.5318 78.7697 80.4709 78.66 80.4709 78.5503Z" fill="#393842"/>
<path d="M76.0587 75.9907V75.6738L76.2415 75.7226C76.2537 75.7104 76.2659 75.7104 76.2781 75.6982L77.0459 75.2594C77.3262 75.101 77.7894 75.0888 78.0697 75.2594L80.6657 76.7585L81.0801 76.856V77.1973C81.0679 77.2948 81.007 77.4045 80.8729 77.4776L80.1051 77.9164C79.8247 78.087 79.3616 78.087 79.0813 77.9164L76.2659 76.2832C76.1197 76.1979 76.0587 76.1004 76.0587 75.9907Z" fill="#393842"/>
<path d="M71.6469 73.4314C71.6469 73.4192 71.6469 73.4192 71.6469 73.4314V73.1023L71.8297 73.151C71.8419 73.1388 71.8541 73.1388 71.8663 73.1267L72.6341 72.6879C72.9144 72.5295 73.3775 72.5173 73.6579 72.6879L76.266 74.1992L76.6804 74.2967V74.6379C76.6682 74.7354 76.6073 74.8451 76.4732 74.9183L75.7054 75.357C75.4251 75.5155 74.9619 75.5276 74.6816 75.357L71.8663 73.7238C71.7078 73.6385 71.6469 73.541 71.6469 73.4314Z" fill="#393842"/>
<path d="M67.2345 70.8598V70.5429L67.4173 70.5917C67.4295 70.5795 67.4417 70.5795 67.4539 70.5673L68.2217 70.1286C68.5021 69.9701 68.9652 69.9579 69.2455 70.1286L71.8537 71.6399L72.2681 71.7374V72.0786C72.2559 72.1761 72.1949 72.2858 72.0609 72.3589L71.2931 72.7977C71.0127 72.9683 70.5496 72.9683 70.2693 72.7977L67.4539 71.1645C67.3077 71.0792 67.2345 70.9695 67.2345 70.8598Z" fill="#393842"/>
<path d="M62.8231 68.3004V67.9835L63.006 68.0323C63.0181 68.0201 63.0303 68.0201 63.0425 68.0079L63.8104 67.5691C64.0907 67.3985 64.5538 67.3985 64.8341 67.5691L67.4423 69.0804L67.8567 69.1779V69.5192C67.8445 69.6167 67.7836 69.7263 67.6495 69.7995L66.8817 70.2382C66.6013 70.3967 66.1382 70.4089 65.8579 70.2382L63.0425 68.6051C62.8963 68.5076 62.8231 68.4101 62.8231 68.3004Z" fill="#393842"/>
<path d="M58.4108 65.7409C58.4108 65.7288 58.4108 65.7288 58.4108 65.7409V65.4241L58.5936 65.4728C58.6058 65.4606 58.618 65.4606 58.6302 65.4484L59.398 65.0097C59.6783 64.8512 60.1415 64.839 60.4218 65.0097L63.0299 66.521L63.4443 66.6184V66.9597C63.4321 67.0572 63.3712 67.1669 63.2371 67.24L62.4693 67.6788C62.189 67.8372 61.7259 67.8494 61.4455 67.6788L58.6302 66.0456C58.4839 65.9481 58.4108 65.8506 58.4108 65.7409Z" fill="#393842"/>
<path d="M53.9992 63.1693V62.8524L54.182 62.9012C54.1942 62.889 54.2064 62.889 54.2186 62.8768L54.9864 62.438C55.2667 62.2674 55.7298 62.2674 56.0102 62.438L58.6183 63.9493L59.0327 64.0468V64.3881C59.0205 64.4856 58.9596 64.5953 58.8255 64.6684L58.0577 65.1072C57.7774 65.2778 57.3142 65.2778 57.0339 65.1072L54.2186 63.474C54.0723 63.3887 53.9992 63.279 53.9992 63.1693Z" fill="#393842"/>
<path d="M49.5868 60.6098V60.293L49.7696 60.3417C49.7818 60.3295 49.794 60.3295 49.8062 60.3173L50.574 59.8786C50.8543 59.7201 51.3175 59.7079 51.5978 59.8786L54.206 61.3899L54.6204 61.4874V61.8286C54.6082 61.9261 54.5472 62.0358 54.4132 62.1089L53.6453 62.5477C53.365 62.7061 52.9019 62.7183 52.6216 62.5477L49.8062 60.9145C49.6599 60.817 49.5868 60.7195 49.5868 60.6098Z" fill="#393842"/>
<path d="M45.1752 58.0505C45.1752 58.0383 45.1752 58.0383 45.1752 58.0505V57.7336L45.358 57.7824C45.3702 57.7702 45.3824 57.7702 45.3946 57.758L46.1624 57.3192C46.4427 57.1608 46.9059 57.1486 47.1862 57.3192L49.7944 58.8305L50.2087 58.928V59.2693C50.1966 59.3668 50.1356 59.4765 50.0016 59.5496L49.2337 59.9884C48.9534 60.159 48.4903 60.159 48.2099 59.9884L45.3946 58.3552C45.2483 58.2577 45.1752 58.148 45.1752 58.0505Z" fill="#393842"/>
<path d="M91.8054 95.1378L92.0004 95.1743L92.0126 95.1622L94.8524 93.529C95.1327 93.3705 95.5958 93.3705 95.8761 93.529L101.105 96.5637L101.385 96.6125V96.905C101.385 96.905 101.385 96.905 101.385 96.9172V96.9294C101.373 97.0269 101.312 97.1366 101.178 97.2097L98.3381 98.8428C98.0578 99.0013 97.5946 99.0013 97.3143 98.8428L92.0004 95.7593C91.8542 95.674 91.7932 95.5644 91.7932 95.4669V95.1378H91.8054Z" fill="#393842"/>
<path d="M85.1263 96.4296L85.3213 96.4784C85.3335 96.4784 85.3335 96.4662 85.3457 96.4662L88.1733 94.833C88.4536 94.6624 88.9167 94.6624 89.197 94.833L96.5463 99.0988L96.9241 99.1841V99.501C96.9241 99.6107 96.8509 99.7081 96.7047 99.7935L93.8771 101.427C93.5968 101.585 93.1337 101.585 92.8534 101.427L85.3335 97.0634C85.1873 96.9781 85.1263 96.8684 85.1263 96.7587V96.4296Z" fill="#393842"/>
<path d="M80.6293 99.0255L80.8243 99.0742C80.8365 99.0742 80.8364 99.062 80.8486 99.062L83.6762 97.4289C83.9565 97.2704 84.4196 97.2704 84.7 97.4289L92.0492 101.695L92.427 101.78V102.097C92.427 102.206 92.3539 102.304 92.2076 102.389L89.3801 104.022C89.0997 104.193 88.6366 104.181 88.3563 104.022L80.8364 99.6592C80.6902 99.5739 80.6293 99.4642 80.6293 99.3545V99.0255Z" fill="#393842"/>
<path d="M36.2656 62.8646L36.4728 62.9012C36.4728 62.9012 36.4728 62.9012 36.485 62.9012L39.3247 61.268C39.6051 61.1096 40.0682 61.1096 40.3485 61.268L45.6746 64.3637L45.9792 64.4124V64.7171C45.9792 64.7171 45.9792 64.7171 45.9792 64.7293V64.7415C45.9671 64.839 45.9061 64.9487 45.7721 65.0218L42.9323 66.655C42.652 66.8134 42.1889 66.8134 41.9085 66.655L36.4972 63.5106C36.3509 63.4252 36.29 63.3156 36.29 63.2059V62.8646H36.2656Z" fill="#393842"/>
<path d="M32.012 65.4728L34.8396 63.8396C35.1199 63.669 35.583 63.669 35.8633 63.8396L43.4807 68.2638C43.761 68.4222 43.761 68.6904 43.4807 68.861L40.6531 70.4942C40.3728 70.6526 39.9097 70.6526 39.6293 70.4942L32.012 66.07C31.7195 65.8994 31.7195 65.6313 32.012 65.4728Z" fill="#393842"/>
<path d="M29.4408 72.3589V72.042L29.6236 72.0907C29.6358 72.0785 29.648 72.0785 29.6602 72.0664L30.428 71.6276C30.7083 71.4692 31.1715 71.457 31.4518 71.6276L34.06 73.1389L34.4744 73.2364V73.5776C34.4622 73.6751 34.4012 73.7848 34.2672 73.858L33.4993 74.2967C33.219 74.4673 32.7559 74.4673 32.4756 74.2967L29.6602 72.6636C29.5139 72.5782 29.453 72.4686 29.4408 72.3589Z" fill="#393842"/>
<path d="M27.381 73.5533V73.2364L27.5638 73.2852C27.576 73.273 27.5882 73.273 27.6004 73.2608L28.3682 72.8221C28.6485 72.6514 29.1117 72.6514 29.392 72.8221L32.0002 74.3333L32.4146 74.4308V74.7721C32.4024 74.8696 32.3414 74.9793 32.2074 75.0524L31.4395 75.4912C31.1592 75.6618 30.6961 75.6618 30.4158 75.4912L27.6004 73.858C27.4419 73.7727 27.381 73.663 27.381 73.5533Z" fill="#393842"/>
<path d="M76.4243 96.4906L79.2519 94.8575C79.5322 94.6868 79.9953 94.6868 80.2757 94.8575L83.091 96.4906C83.3713 96.6491 83.3713 96.9172 83.091 97.0878L80.2635 98.721C79.9832 98.8794 79.52 98.8794 79.2397 98.721L76.4243 97.0878C76.144 96.9294 76.144 96.6612 76.4243 96.4906Z" fill="#393842"/>
<path d="M102.518 91.3593V91.0181L102.726 91.079C102.726 91.079 102.726 91.079 102.738 91.0668L103.506 90.6281C103.786 90.4696 104.249 90.4575 104.529 90.6281L107.771 92.5172L108.234 92.6512V92.9925C108.222 93.09 108.149 93.1875 108.027 93.2606L107.259 93.6994C106.979 93.87 106.516 93.87 106.236 93.6994L102.738 91.664C102.579 91.5787 102.518 91.469 102.518 91.3593Z" fill="#393842"/>
<path d="M98.9715 93.7119L101.799 92.0788C102.079 91.9204 102.542 91.9204 102.823 92.0788L105.638 93.7119C105.918 93.8704 105.918 94.1385 105.638 94.3091L102.811 95.9423C102.53 96.1007 102.067 96.1007 101.787 95.9423L98.9715 94.3091C98.6911 94.1507 98.6911 93.8826 98.9715 93.7119Z" fill="#57565E"/>
<path d="M94.5718 91.1523L97.3994 89.5192C97.6797 89.3486 98.1428 89.3608 98.4231 89.5192L101.238 91.1523C101.519 91.3108 101.519 91.5789 101.238 91.7496L98.4109 93.3827C98.1306 93.5533 97.6675 93.5533 97.3872 93.3827L94.5718 91.7496C94.2793 91.5789 94.2793 91.3108 94.5718 91.1523Z" fill="#57565E"/>
<path d="M90.1599 88.5931L92.9875 86.9599C93.2678 86.8015 93.7309 86.8015 94.0113 86.9599L96.8266 88.5931C97.1069 88.7515 97.1069 89.0196 96.8266 89.1903L93.9991 90.8234C93.7188 90.9819 93.2556 90.9819 92.9753 90.8234L90.1599 89.1903C89.8674 89.0196 89.8674 88.7515 90.1599 88.5931Z" fill="#57565E"/>
<path d="M85.7478 86.0215L88.5754 84.3884C88.8557 84.2299 89.3188 84.2299 89.5991 84.3884L92.4145 86.0215C92.6948 86.18 92.6948 86.4481 92.4145 86.6187L89.587 88.2519C89.3066 88.4225 88.8435 88.4225 88.5632 88.2519L85.7478 86.6187C85.4553 86.4603 85.4553 86.1922 85.7478 86.0215Z" fill="#57565E"/>
<path d="M81.3359 83.4619L84.1635 81.8288C84.4438 81.6704 84.907 81.6704 85.1873 81.8288L88.0027 83.4619C88.283 83.6204 88.283 83.8885 88.0027 84.0592L85.1751 85.6923C84.8948 85.8507 84.4316 85.8507 84.1513 85.6923L81.3359 84.0592C81.0434 83.8885 81.0434 83.6204 81.3359 83.4619Z" fill="#57565E"/>
<path d="M76.9238 80.9024L79.7514 79.2692C80.0317 79.1108 80.4949 79.1108 80.7752 79.2692L83.5905 80.9024C83.8709 81.073 83.8709 81.329 83.5905 81.4996L80.763 83.1327C80.4827 83.3034 80.0195 83.3034 79.7392 83.1327L76.9238 81.4996C76.6313 81.329 76.6313 81.0608 76.9238 80.9024Z" fill="#57565E"/>
<path d="M72.5122 78.3308L75.3398 76.6977C75.6201 76.527 76.0832 76.5392 76.3636 76.6977L79.1789 78.3308C79.4592 78.4893 79.4592 78.7574 79.1789 78.928L76.3514 80.5612C76.071 80.7196 75.6079 80.7318 75.3276 80.5612L72.5122 78.928C72.2197 78.7696 72.2197 78.5014 72.5122 78.3308Z" fill="#57565E"/>
<path d="M68.1001 75.7713L70.9277 74.1381C71.208 73.9797 71.6711 73.9797 71.9514 74.1381L74.7668 75.7713C75.0471 75.9419 75.0471 76.1978 74.7668 76.3685L71.9393 78.0016C71.6589 78.1601 71.1958 78.1723 70.9155 78.0016L68.1001 76.3685C67.8076 76.1978 67.8198 75.9297 68.1001 75.7713Z" fill="#57565E"/>
<path d="M63.6882 73.2121L66.5158 71.5789C66.7961 71.4083 67.2593 71.4083 67.5396 71.5789L70.3549 73.2121C70.6353 73.3705 70.6353 73.6386 70.3549 73.8093L67.5274 75.4424C67.2471 75.613 66.7839 75.613 66.5036 75.4424L63.6882 73.8093C63.3957 73.6386 63.4079 73.3705 63.6882 73.2121Z" fill="#57565E"/>
<path d="M59.2761 70.6402L62.1037 69.007C62.384 68.8486 62.8471 68.8486 63.1275 69.007L65.9428 70.6402C66.2232 70.7986 66.2232 71.0667 65.9428 71.2374L63.1153 72.8705C62.835 73.029 62.3718 73.0412 62.0915 72.8705L59.2761 71.2374C58.9836 71.0789 58.9958 70.8108 59.2761 70.6402Z" fill="#57565E"/>
<path d="M54.8643 68.0809L57.6918 66.4477C57.9721 66.2892 58.4353 66.2892 58.7156 66.4477L61.531 68.0809C61.8113 68.2393 61.8113 68.5074 61.531 68.678L58.7034 70.3112C58.4231 70.4819 57.96 70.4819 57.6796 70.3112L54.8643 68.678C54.5718 68.5074 54.584 68.2393 54.8643 68.0809Z" fill="#57565E"/>
<path d="M83.2251 89.7019L86.0527 88.0688C86.333 87.9103 86.7961 87.9103 87.0764 88.0688L89.8918 89.7019C90.1721 89.8604 90.1721 90.1285 89.8918 90.2991L87.0643 91.9323C86.7839 92.0907 86.3208 92.0907 86.0405 91.9323L83.2251 90.2991C82.9326 90.1285 82.9326 89.8726 83.2251 89.7019Z" fill="#57565E"/>
<path d="M78.813 87.1426L81.6406 85.5094C81.9209 85.3388 82.384 85.351 82.6643 85.5094L85.4797 87.1426C85.76 87.301 85.76 87.5692 85.4797 87.7398L82.6521 89.373C82.3718 89.5314 81.9087 89.5314 81.6284 89.373L78.813 87.7398C78.5205 87.5692 78.5205 87.301 78.813 87.1426Z" fill="#57565E"/>
<path d="M74.4011 84.5711L77.2287 82.9379C77.509 82.7795 77.9722 82.7795 78.2525 82.9379L81.0678 84.5711C81.3482 84.7295 81.3482 84.9976 81.0678 85.1683L78.2403 86.8014C77.96 86.9721 77.4968 86.9721 77.2165 86.8014L74.4011 85.1683C74.1086 85.0098 74.1086 84.7417 74.4011 84.5711Z" fill="#57565E"/>
<path d="M69.9893 82.0118L72.8168 80.3786C73.0972 80.2202 73.5603 80.2202 73.8406 80.3786L76.656 82.0118C76.9363 82.1702 76.9363 82.4383 76.656 82.609L73.8284 84.2421C73.5481 84.4006 73.085 84.4006 72.8046 84.2421L69.9893 82.609C69.6968 82.4383 69.709 82.1824 69.9893 82.0118Z" fill="#57565E"/>
<path d="M65.5772 79.4522L68.4047 77.819C68.685 77.6484 69.1482 77.6606 69.4285 77.819L72.2439 79.4522C72.5242 79.6228 72.5242 79.8787 72.2439 80.0494L69.4163 81.6825C69.136 81.8531 68.6728 81.8531 68.3925 81.6825L65.5772 80.0494C65.2847 79.8787 65.2968 79.6106 65.5772 79.4522Z" fill="#57565E"/>
<path d="M61.1651 76.8804L63.9926 75.2472C64.2729 75.0888 64.7361 75.0888 65.0164 75.2472L67.8318 76.8804C68.1121 77.0389 68.1121 77.307 67.8318 77.4776L65.0042 79.1108C64.7239 79.2692 64.2607 79.2814 63.9804 79.1108L61.1651 77.4776C60.8725 77.3192 60.8847 77.0511 61.1651 76.8804Z" fill="#57565E"/>
<path d="M56.7532 74.3212L59.5808 72.688C59.8611 72.5174 60.3242 72.5174 60.6045 72.688L63.4321 74.3212C63.7124 74.4918 63.7124 74.7478 63.4321 74.9184L60.6045 76.5515C60.3242 76.71 59.8611 76.7222 59.5808 76.5515L56.7654 74.9184C56.4729 74.7478 56.4729 74.4918 56.7532 74.3212Z" fill="#57565E"/>
<path d="M52.3413 71.7618L55.1689 70.1286C55.4492 69.9702 55.9123 69.9702 56.1927 70.1286L59.008 71.7618C59.2883 71.9202 59.2883 72.1883 59.008 72.359L56.1805 73.9921C55.9001 74.1506 55.437 74.1627 55.1567 73.9921L52.3413 72.359C52.061 72.1883 52.061 71.9202 52.3413 71.7618Z" fill="#57565E"/>
<path d="M47.9292 69.1901L50.7568 67.5569C51.0371 67.3863 51.5002 67.3863 51.7805 67.5569L54.5959 69.1901C54.8762 69.3607 54.8762 69.6167 54.5959 69.7873L51.7684 71.4204C51.488 71.5789 51.0249 71.5911 50.7446 71.4204L47.9292 69.7873C47.6489 69.6288 47.6489 69.3607 47.9292 69.1901Z" fill="#57565E"/>
<path d="M43.5173 66.6306L46.3449 64.9975C46.6252 64.839 47.0884 64.8268 47.3687 64.9975L50.184 66.6306C50.4644 66.7891 50.4644 67.0572 50.184 67.2278L47.3565 68.861C47.0762 69.0316 46.613 69.0316 46.3327 68.861L43.5173 67.2278C43.237 67.0572 43.237 66.8012 43.5173 66.6306Z" fill="#57565E"/>
<path d="M50.4522 65.5213L53.2797 63.8881C53.56 63.7297 54.0232 63.7297 54.3035 63.8881L57.1189 65.5213C57.3992 65.6797 57.3992 65.9479 57.1189 66.1185L54.2913 67.7516C54.011 67.9101 53.5479 67.9101 53.2675 67.7516L50.4522 66.1185C50.1718 65.9479 50.1718 65.6797 50.4522 65.5213Z" fill="#57565E"/>
<path d="M46.0405 62.95L48.8681 61.3168C49.1484 61.1584 49.6115 61.1584 49.8919 61.3168L52.7072 62.95C52.9876 63.1084 52.9876 63.3766 52.7072 63.5472L49.8797 65.1803C49.5994 65.3388 49.1362 65.3388 48.8559 65.1803L46.0405 63.5472C45.7602 63.3887 45.7602 63.1206 46.0405 62.95Z" fill="#57565E"/>
<path d="M81.1043 104.035L83.9318 102.402C84.2121 102.243 84.6753 102.243 84.9556 102.402L87.771 104.035C88.0513 104.193 88.0513 104.461 87.771 104.632L84.9434 106.265C84.6631 106.424 84.2 106.424 83.9196 106.265L81.1043 104.632C80.8118 104.473 80.8118 104.205 81.1043 104.035Z" fill="#57565E"/>
<path d="M76.6924 101.475L79.52 99.8422C79.8003 99.6838 80.2634 99.6838 80.5437 99.8422L83.3591 101.475C83.6394 101.634 83.6394 101.902 83.3591 102.073L80.5315 103.706C80.2512 103.864 79.7881 103.864 79.5078 103.706L76.6924 102.073C76.3999 101.902 76.3999 101.634 76.6924 101.475Z" fill="#57565E"/>
<path d="M72.2803 98.9158L75.1078 97.2704C75.3882 97.112 75.8513 97.112 76.1316 97.2704L78.947 98.9036C79.2273 99.062 79.2273 99.3302 78.947 99.5008L76.1194 101.134C75.8391 101.292 75.376 101.292 75.0957 101.134L72.2803 99.5008C71.9878 99.3424 71.9878 99.0742 72.2803 98.9158Z" fill="#57565E"/>
<path d="M67.8684 96.3443L70.696 94.7111C70.9763 94.5527 71.4394 94.5527 71.7198 94.7111L74.5351 96.3443C74.8154 96.5027 74.8154 96.7708 74.5351 96.9415L71.7076 98.5746C71.4272 98.7453 70.9641 98.7453 70.6838 98.5746L67.8684 96.9415C67.5759 96.783 67.5759 96.5149 67.8684 96.3443Z" fill="#57565E"/>
<path d="M87.637 92.2615L90.4645 90.6283C90.7449 90.4577 91.208 90.4699 91.4883 90.6283L94.3037 92.2615C94.584 92.4199 94.584 92.6881 94.3037 92.8587L91.4761 94.4918C91.1958 94.6503 90.7327 94.6503 90.4523 94.4918L87.637 92.8587C87.3445 92.7002 87.3445 92.4321 87.637 92.2615Z" fill="#57565E"/>
<path d="M40.9457 59.9883L43.7732 58.3551C44.0536 58.1845 44.5167 58.1967 44.797 58.3551L48.2949 60.3905C48.5752 60.5611 48.5752 60.8171 48.2949 60.9877L45.4673 62.6208C45.187 62.7793 44.7239 62.7793 44.4436 62.6208L40.9457 60.5855C40.6654 60.4271 40.6654 60.1589 40.9457 59.9883Z" fill="#57565E"/>
<path d="M40.8237 80.6343L43.6512 79.0012C43.9315 78.8427 44.3947 78.8427 44.675 79.0012L70.123 93.7849C70.4033 93.9433 70.4033 94.2115 70.123 94.3821L67.2954 96.0153C67.0151 96.1737 66.552 96.1737 66.2717 96.0153L40.8237 81.2315C40.5311 81.0609 40.5433 80.7927 40.8237 80.6343Z" fill="#57565E"/>
<path d="M98.3259 88.1906L99.0937 87.7519C99.374 87.5934 99.8371 87.5812 100.117 87.7519L102.933 89.385C103.213 89.5435 103.213 89.8116 102.933 89.9822L102.165 90.421C101.885 90.5916 101.422 90.5916 101.141 90.421L98.3259 88.7878C98.0333 88.6172 98.0455 88.3612 98.3259 88.1906Z" fill="#57565E"/>
<path d="M93.9137 85.6313L94.6816 85.1925C94.9619 85.0341 95.425 85.0219 95.7054 85.1925L98.5207 86.8257C98.801 86.9841 98.801 87.2523 98.5207 87.4229L97.7529 87.8617C97.4726 88.0201 97.0094 88.0323 96.7291 87.8617L93.9137 86.2285C93.6212 86.0579 93.6334 85.7897 93.9137 85.6313Z" fill="#57565E"/>
<path d="M89.5019 83.0599L90.2697 82.6211C90.55 82.4505 91.0132 82.4505 91.2935 82.6211L94.1089 84.2543C94.3892 84.4249 94.3892 84.6809 94.1089 84.8515L93.341 85.2903C93.0607 85.4609 92.5976 85.4609 92.3173 85.2903L89.5019 83.6571C89.2094 83.4987 89.2216 83.2305 89.5019 83.0599Z" fill="#57565E"/>
<path d="M85.0895 80.5004L85.8574 80.0617C86.1377 79.9032 86.6008 79.891 86.8811 80.0617L89.6965 81.6948C89.9768 81.8533 89.9768 82.1214 89.6965 82.292L88.9287 82.7308C88.6484 82.8892 88.1852 82.8892 87.9049 82.7308L85.0895 81.0976C84.797 80.927 84.8092 80.6711 85.0895 80.5004Z" fill="#57565E"/>
<path d="M80.6782 77.9408L81.446 77.502C81.7263 77.3314 82.1894 77.3314 82.4698 77.502L85.2851 79.1351C85.5654 79.3058 85.5654 79.5617 85.2851 79.7324L84.5173 80.1711C84.237 80.3296 83.7738 80.3296 83.4935 80.1711L80.6782 78.538C80.3978 78.3673 80.3978 78.0992 80.6782 77.9408Z" fill="#57565E"/>
<path d="M76.2658 75.3691L77.0336 74.9304C77.3139 74.7719 77.7771 74.7719 78.0574 74.9304L80.8728 76.5635C81.1531 76.7219 81.1531 76.9901 80.8728 77.1607L80.1049 77.5995C79.8246 77.7579 79.3615 77.7579 79.0812 77.5995L76.2658 75.9663C75.9855 75.8079 75.9855 75.5397 76.2658 75.3691Z" fill="#57565E"/>
<path d="M71.8542 72.8098L72.622 72.371C72.9023 72.2126 73.3655 72.2126 73.6458 72.371L76.4611 74.0042C76.7415 74.1626 76.7415 74.4308 76.4611 74.6014L75.6933 75.0401C75.413 75.1986 74.9499 75.1986 74.6695 75.0401L71.8542 73.407C71.5739 73.2364 71.5739 72.9804 71.8542 72.8098Z" fill="#57565E"/>
<path d="M67.4418 70.2502L68.2097 69.8115C68.49 69.653 68.9531 69.653 69.2334 69.8115L72.0488 71.4446C72.3291 71.6031 72.3291 71.8712 72.0488 72.0418L71.281 72.4806C71.0007 72.6512 70.5375 72.6512 70.2572 72.4806L67.4418 70.8474C67.1615 70.6768 67.1615 70.4087 67.4418 70.2502Z" fill="#57565E"/>
<path d="M63.03 67.6787L63.7978 67.2399C64.0781 67.0815 64.5412 67.0815 64.8216 67.2399L67.6369 68.8731C67.9172 69.0315 67.9172 69.2997 67.6369 69.4703L66.8691 69.909C66.5888 70.0675 66.1256 70.0675 65.8453 69.909L63.03 68.2759C62.7496 68.1174 62.7496 67.8493 63.03 67.6787Z" fill="#57565E"/>
<path d="M58.6181 65.1194L59.3859 64.6806C59.6662 64.5222 60.1294 64.5222 60.4097 64.6806L63.2251 66.3138C63.5054 66.4722 63.5054 66.7403 63.2251 66.911L62.4572 67.3497C62.1769 67.5203 61.7138 67.5203 61.4335 67.3497L58.6181 65.7166C58.3378 65.5459 58.3378 65.29 58.6181 65.1194Z" fill="#57565E"/>
<path d="M54.2062 62.5599L54.9741 62.1211C55.2544 61.9505 55.7175 61.9505 55.9978 62.1211L58.8132 63.7543C59.0935 63.9127 59.0935 64.1809 58.8132 64.3515L58.0454 64.7902C57.7651 64.9487 57.3019 64.9487 57.0216 64.7902L54.2062 63.1571C53.9259 62.9865 53.9259 62.7183 54.2062 62.5599Z" fill="#57565E"/>
<path d="M49.8061 59.9883L50.5739 59.5495C50.8542 59.3911 51.3174 59.3911 51.5977 59.5495L54.4131 61.1826C54.6934 61.3411 54.6934 61.6092 54.4131 61.7799L53.6452 62.2186C53.3649 62.3771 52.9018 62.3771 52.6215 62.2186L49.8061 60.5854C49.5136 60.427 49.5136 60.1589 49.8061 59.9883Z" fill="#57565E"/>
<path d="M45.3942 57.4288L46.162 56.99C46.4424 56.8194 46.9055 56.8194 47.1858 56.99L50.0012 58.6232C50.2815 58.7816 50.2815 59.0498 50.0012 59.2204L49.2334 59.6592C48.953 59.8176 48.4899 59.8176 48.2096 59.6592L45.3942 58.026C45.1017 57.8554 45.1017 57.5994 45.3942 57.4288Z" fill="#57565E"/>
<path d="M102.738 90.7501L103.506 90.3113C103.786 90.1407 104.249 90.1407 104.529 90.3113L108.027 92.3467C108.308 92.5051 108.308 92.7733 108.027 92.9439L107.259 93.3826C106.979 93.5411 106.516 93.5411 106.236 93.3826L102.738 91.3473C102.445 91.1888 102.458 90.9207 102.738 90.7501Z" fill="#57565E"/>
<path d="M92.0123 94.8452L94.852 93.2121C95.1323 93.0537 95.5955 93.0537 95.8758 93.2121L101.19 96.2956C101.47 96.454 101.47 96.7222 101.19 96.8928L98.3499 98.526C98.0696 98.6844 97.6065 98.6844 97.3261 98.526L92.0123 95.4425C91.732 95.284 91.732 95.0159 92.0123 94.8452Z" fill="#57565E"/>
<path d="M85.3334 96.1492L88.1609 94.516C88.4413 94.3576 88.9044 94.3576 89.1847 94.516L96.7046 98.8792C96.9849 99.0377 96.9849 99.3058 96.7046 99.4765L93.877 101.11C93.5967 101.268 93.1335 101.268 92.8532 101.11L85.3334 96.7464C85.0531 96.5758 85.0531 96.3076 85.3334 96.1492Z" fill="#57565E"/>
<path d="M80.8363 98.7454L83.6761 97.1122C83.9564 96.9538 84.4195 96.9538 84.6998 97.1122L92.2197 101.475C92.5 101.634 92.5 101.902 92.2197 102.073L89.3799 103.706C89.0996 103.864 88.6365 103.864 88.3562 103.706L80.8363 99.3426C80.556 99.172 80.556 98.9038 80.8363 98.7454Z" fill="#57565E"/>
<path d="M36.4726 62.5723L39.3124 60.9391C39.5927 60.7807 40.0558 60.7807 40.3362 60.9391L45.7475 64.0836C46.0278 64.2542 46.0278 64.5101 45.7475 64.6808L42.9078 66.3139C42.6275 66.4724 42.1643 66.4724 41.884 66.3139L36.4726 63.1695C36.1923 62.9989 36.1923 62.7429 36.4726 62.5723Z" fill="#57565E"/>
<path d="M32.012 65.1558L34.8396 63.5226C35.1199 63.3642 35.583 63.3642 35.8633 63.5226L43.4807 67.9468C43.761 68.1174 43.761 68.3734 43.4807 68.544L40.6531 70.1772C40.3728 70.3478 39.9097 70.3478 39.6293 70.1772L32.012 65.753C31.7195 65.5824 31.7195 65.3142 32.012 65.1558Z" fill="#57565E"/>
<path d="M29.6601 71.7492L30.4279 71.3105C30.7082 71.152 31.1714 71.152 31.4517 71.3105L34.2671 72.9436C34.5474 73.1021 34.5474 73.3702 34.2671 73.5408L33.4992 73.9796C33.2189 74.1502 32.7558 74.1502 32.4755 73.9796L29.6601 72.3464C29.3676 72.1758 29.3798 71.9077 29.6601 71.7492Z" fill="#57565E"/>
<path d="M27.5881 72.9438L28.3559 72.505C28.6362 72.3466 29.0993 72.3344 29.3797 72.505L32.195 74.1382C32.4754 74.2966 32.4754 74.5648 32.195 74.7354L31.4272 75.1742C31.1469 75.3448 30.6838 75.3448 30.4034 75.1742L27.5881 73.541C27.3077 73.3704 27.3077 73.1022 27.5881 72.9438Z" fill="#57565E"/>
<path d="M45.638 73.078L48.4655 71.4449C48.7458 71.2742 49.209 71.2742 49.4893 71.4449L52.3047 73.078C52.585 73.2486 52.585 73.5046 52.3047 73.6752L49.4771 75.3084C49.1968 75.4668 48.7336 75.4668 48.4533 75.3084L45.638 73.6752C45.3576 73.5046 45.3576 73.2365 45.638 73.078Z" fill="#57565E"/>
<path d="M41.2261 70.5064L44.0536 68.8732C44.334 68.7148 44.7971 68.7026 45.0774 68.8732L47.8928 70.5064C48.1731 70.6648 48.1731 70.9329 47.8928 71.1036L45.0652 72.7367C44.7849 72.8952 44.3218 72.8952 44.0415 72.7367L41.2261 71.1036C40.9458 70.9451 40.9458 70.677 41.2261 70.5064Z" fill="#57565E"/>
<path d="M41.1409 75.6739L43.9806 74.0407C44.261 73.8823 44.7241 73.8823 45.0044 74.0407L47.8198 75.6739C48.1001 75.8445 48.1001 76.1004 47.8198 76.2711L44.98 77.9042C44.6997 78.0627 44.2366 78.0627 43.9563 77.9042L41.1409 76.2711C40.8484 76.1004 40.8606 75.8323 41.1409 75.6739Z" fill="#57565E"/>
<path d="M36.7288 73.1145L39.5685 71.4814C39.8489 71.3229 40.312 71.3107 40.5923 71.4814L43.4077 73.1145C43.688 73.2729 43.688 73.5411 43.4077 73.7117L40.5679 75.3449C40.2876 75.5033 39.8245 75.5033 39.5442 75.3449L36.7288 73.7117C36.4363 73.5411 36.4485 73.2729 36.7288 73.1145Z" fill="#57565E"/>
<path d="M32.3169 70.5428L35.1567 68.9096C35.437 68.7512 35.9001 68.7512 36.1804 68.9096L38.9958 70.5428C39.2761 70.7134 39.2761 70.9693 38.9958 71.14L36.1561 72.7731C35.8757 72.9316 35.4126 72.9316 35.1323 72.7731L32.3169 71.14C32.0244 70.9693 32.0366 70.7134 32.3169 70.5428Z" fill="#57565E"/>
<path d="M27.5148 67.752L30.3546 66.1188C30.6349 65.9604 31.098 65.9604 31.3783 66.1188L34.5837 67.9836C34.864 68.142 34.864 68.4101 34.5837 68.5807L31.744 70.2139C31.4636 70.3724 31.0005 70.3845 30.7202 70.2139L27.5148 68.3492C27.2223 68.1786 27.2223 67.9104 27.5148 67.752Z" fill="#57565E"/>
<path d="M54.4619 78.1968L57.2895 76.5636C57.5698 76.4052 58.0329 76.393 58.3133 76.5636L61.1286 78.1968C61.4089 78.3552 61.4089 78.6234 61.1286 78.794L58.3011 80.4271C58.0208 80.5856 57.5576 80.5856 57.2773 80.4271L54.4619 78.794C54.1694 78.6355 54.1816 78.3674 54.4619 78.1968Z" fill="#57565E"/>
<path d="M50.0498 75.6372L52.8774 74.0041C53.1577 73.8456 53.6208 73.8334 53.9011 74.0041L56.7165 75.6372C56.9968 75.7957 56.9968 76.0638 56.7165 76.2344L53.889 77.8676C53.6086 78.0382 53.1455 78.0382 52.8652 77.8676L50.0498 76.2344C49.7695 76.0638 49.7695 75.8078 50.0498 75.6372Z" fill="#57565E"/>
<path d="M49.9649 80.805L52.8046 79.1718C53.0849 79.0134 53.5481 79.0134 53.8284 79.1718L56.6438 80.805C56.9241 80.9756 56.9241 81.2315 56.6438 81.4022L53.804 83.0353C53.5237 83.1938 53.0606 83.206 52.7802 83.0353L49.9649 81.4022C49.6724 81.2315 49.6846 80.9634 49.9649 80.805Z" fill="#57565E"/>
<path d="M45.5528 78.2334L48.3925 76.6002C48.6728 76.4418 49.136 76.4296 49.4163 76.6002L52.2317 78.2334C52.512 78.3919 52.512 78.66 52.2317 78.8306L49.3919 80.4638C49.1116 80.6222 48.6484 80.6222 48.3681 80.4638L45.5528 78.8306C45.2603 78.6722 45.2724 78.4041 45.5528 78.2334Z" fill="#57565E"/>
<path d="M63.2862 83.3279L66.1137 81.6948C66.394 81.5363 66.8572 81.5363 67.1375 81.6948L69.9528 83.3279C70.2332 83.4864 70.2332 83.7545 69.9528 83.9251L67.1253 85.5583C66.845 85.7167 66.3818 85.7167 66.1015 85.5583L63.2862 83.9251C62.9936 83.7545 62.9936 83.4985 63.2862 83.3279Z" fill="#57565E"/>
<path d="M58.8738 80.7685L61.7013 79.1353C61.9817 78.9647 62.4448 78.9647 62.7251 79.1353L65.5405 80.7685C65.8208 80.9391 65.8208 81.195 65.5405 81.3657L62.7129 82.9988C62.4326 83.1694 61.9695 83.1694 61.6892 82.9988L58.8738 81.3657C58.5813 81.195 58.5813 80.9269 58.8738 80.7685Z" fill="#57565E"/>
<path d="M58.7764 85.9239L61.6161 84.2907C61.8965 84.1323 62.3596 84.1323 62.6399 84.2907L65.4553 85.9239C65.7356 86.0823 65.7356 86.3504 65.4553 86.5211L62.6155 88.1542C62.3352 88.3127 61.8721 88.3249 61.5918 88.1542L58.7764 86.5211C58.4961 86.3626 58.4961 86.0945 58.7764 85.9239Z" fill="#57565E"/>
<path d="M54.3765 83.3643L57.2162 81.7311C57.4966 81.5727 57.9597 81.5727 58.24 81.7311L61.0554 83.3643C61.3357 83.5227 61.3357 83.7909 61.0554 83.9615L58.2156 85.5947C57.9353 85.7531 57.4722 85.7531 57.1919 85.5947L54.3765 83.9615C54.084 83.7909 54.084 83.5227 54.3765 83.3643Z" fill="#57565E"/>
<path d="M72.1101 88.459L74.9377 86.8259C75.218 86.6674 75.6811 86.6674 75.9614 86.8259L78.7768 88.459C79.0571 88.6297 79.0571 88.8856 78.7768 89.0562L75.9493 90.6894C75.6689 90.8478 75.2058 90.8478 74.9255 90.6894L72.1101 89.0562C71.8176 88.8856 71.8176 88.6175 72.1101 88.459Z" fill="#57565E"/>
<path d="M67.6978 85.8874L70.5253 84.2542C70.8056 84.0836 71.2688 84.0836 71.5491 84.2542L74.3645 85.8874C74.6448 86.0458 74.6448 86.3139 74.3645 86.4846L71.5369 88.1177C71.2566 88.2762 70.7935 88.2762 70.5131 88.1177L67.6978 86.4846C67.4053 86.3261 67.4053 86.058 67.6978 85.8874Z" fill="#57565E"/>
<path d="M67.6004 91.0547L70.4401 89.4216C70.7204 89.2631 71.1836 89.2631 71.4639 89.4216L74.2793 91.0547C74.5596 91.2132 74.5596 91.4813 74.2793 91.6519L71.4395 93.2851C71.1592 93.4435 70.6961 93.4435 70.4157 93.2851L67.6004 91.6519C67.3201 91.4813 67.3201 91.2132 67.6004 91.0547Z" fill="#57565E"/>
<path d="M63.1885 88.4954L66.0283 86.8622C66.3086 86.7038 66.7717 86.7038 67.052 86.8622L69.8674 88.4954C70.1477 88.666 70.1477 88.922 69.8674 89.0926L67.0277 90.7258C66.7473 90.8842 66.2842 90.8842 66.0039 90.7258L63.1885 89.0926C62.9082 88.922 62.9082 88.6539 63.1885 88.4954Z" fill="#57565E"/>
<path d="M80.9216 93.5779L83.7492 91.9448C84.0295 91.7863 84.4927 91.7863 84.773 91.9448L87.5883 93.5779C87.8687 93.7364 87.8687 94.0045 87.5883 94.1751L84.7608 95.8083C84.4805 95.9789 84.0173 95.9667 83.737 95.8083L80.9216 94.1751C80.6413 94.0167 80.6413 93.7485 80.9216 93.5779Z" fill="#57565E"/>
<path d="M76.5217 91.0182L79.3493 89.3851C79.6296 89.2144 80.0928 89.2144 80.3731 89.3851L83.1884 91.0182C83.4688 91.1766 83.4688 91.4448 83.1884 91.6154L80.3609 93.2486C80.0806 93.407 79.6174 93.407 79.3371 93.2486L76.5217 91.6154C76.2292 91.4448 76.2292 91.1888 76.5217 91.0182Z" fill="#57565E"/>
<path d="M76.4243 96.1858L79.2641 94.5527C79.5444 94.3942 80.0075 94.3942 80.2879 94.5527L83.1032 96.1858C83.3836 96.3443 83.3836 96.6124 83.1032 96.783L80.2635 98.4162C79.9832 98.5746 79.52 98.5746 79.2397 98.4162L76.4243 96.783C76.144 96.6124 76.144 96.3443 76.4243 96.1858Z" fill="#57565E"/>
<path d="M72.0122 93.6143L74.852 91.9811C75.1323 91.8227 75.5954 91.8227 75.8758 91.9811L78.6911 93.6143C78.9714 93.7849 78.9714 94.0409 78.6911 94.2115L75.8514 95.8447C75.5711 96.0031 75.1079 96.0031 74.8276 95.8447L72.0122 94.2115C71.7319 94.0531 71.7319 93.7849 72.0122 93.6143Z" fill="#57565E"/>
<path d="M36.4119 78.0628L39.2394 76.4296C39.5198 76.2712 39.9829 76.2712 40.2632 76.4296L43.0786 78.0628C43.3589 78.2212 43.3589 78.4894 43.0786 78.66L40.251 80.2931C39.9707 80.4516 39.5076 80.4638 39.2272 80.2931L36.4119 78.66C36.1194 78.5015 36.1316 78.2334 36.4119 78.0628Z" fill="#57565E"/>
<path d="M32 75.5032L34.8276 73.87C35.1079 73.7116 35.571 73.6994 35.8513 73.87L38.6667 75.5032C38.947 75.6738 38.947 75.9298 38.6667 76.1004L35.8392 77.7335C35.5588 77.9042 35.0957 77.9042 34.8154 77.7335L32 76.1004C31.7197 75.9298 31.7197 75.6738 32 75.5032Z" fill="#57565E"/>
<path d="M23.0664 70.3113L25.894 68.6782C26.1743 68.5197 26.6374 68.5197 26.9178 68.6782L29.7331 70.3113C30.0134 70.4698 30.0134 70.7379 29.7331 70.9085L26.9056 72.5417C26.6252 72.7123 26.1621 72.7123 25.8818 72.5417L23.0664 70.9085C22.7861 70.7501 22.7861 70.482 23.0664 70.3113Z" fill="#57565E"/>
<defs>
<filter id="filter0_f_5_35469" x="0" y="44.9673" width="153.258" height="80.0327" filterUnits="userSpaceOnUse" color-interpolation-filters="sRGB">
<feFlood flood-opacity="0" result="BackgroundImageFix"/>
<feBlend mode="normal" in="SourceGraphic" in2="BackgroundImageFix" result="shape"/>
<feGaussianBlur stdDeviation="2" result="effect1_foregroundBlur_5_35469"/>
</filter>
<linearGradient id="paint0_linear_5_35469" x1="104.488" y1="86.0257" x2="72.0423" y2="2.24242" gradientUnits="userSpaceOnUse">
<stop offset="0.0138" stop-color="#A0A6C0"/>
<stop offset="0.3825" stop-color="#A0A6C0"/>
<stop offset="0.386" stop-color="#ADB2C9"/>
<stop offset="0.3943" stop-color="#C6C9DA"/>
<stop offset="0.4029" stop-color="#D9DAE6"/>
<stop offset="0.4119" stop-color="#E3E4EE"/>
<stop offset="0.422" stop-color="#E7E7F0"/>
</linearGradient>
<linearGradient id="paint1_linear_5_35469" x1="112.777" y1="88.2958" x2="4.47926" y2="88.2958" gradientUnits="userSpaceOnUse">
<stop offset="0.0138" stop-color="#A0A6C0"/>
<stop offset="0.3825" stop-color="#A0A6C0"/>
<stop offset="0.3848" stop-color="#A3A9C2"/>
<stop offset="0.3997" stop-color="#B6BACE"/>
<stop offset="0.4155" stop-color="#C0C5D6"/>
<stop offset="0.4331" stop-color="#C4C8D8"/>
<stop offset="0.9356" stop-color="#C4C8D8"/>
<stop offset="0.979" stop-color="#C4C8D8"/>
<stop offset="1" stop-color="#C4C8D8"/>
</linearGradient>
</defs>
</svg>
